<svg xmlns="http://www.w3.org/2000/svg" viewBox="0 0 125 33">
<!-- SVG created with Arrow, by QuiverAI (https://quiver.ai) -->
  <style type="text/css">.cls-0 {fill:url(#SVGID_1_);}
.cls-1 {fill:url(#SVGID_2_);}
.cls-2 {fill:#381C11;}
.cls-3 {fill:url(#SVGID_3_);}
.cls-4 {fill:url(#SVGID_4_);}
.cls-5 {fill:url(#SVGID_5_);}
.cls-6 {fill:url(#SVGID_6_);}
.cls-7 {fill:url(#SVGID_7_);}
.cls-8 {fill:url(#SVGID_8_);}
.cls-9 {fill:url(#SVGID_9_);}</style>
  <linearGradient id="SVGID_1_" x1="39.86" x2="39.86" y1="6.582" y2="32.31" gradientUnits="userSpaceOnUse">
    <stop stop-color="#F7B678" offset="0"/>
    <stop stop-color="#B05A1B" offset="1"/>
  </linearGradient>
  <path class="cls-0" d="m39.9 6.6c-6.5 0.1-12.8 5.4-12.8 13.2 0 6.2 3.9 12.5 12.8 12.5 7.7 0 12.9-4.9 12.9-12.5 0-7.3-5.4-13.2-12.9-13.2zm0 16c-2 0-3.6-1.3-3.6-2.9 0-1.8 1.6-3.3 3.6-3.3s3.9 1.3 3.9 3.3c0 1.8-1.7 2.9-3.9 2.9z"/>
  <linearGradient id="SVGID_2_" x1="39.79" x2="39.79" y1="6.61" y2="30.82" gradientUnits="userSpaceOnUse">
    <stop stop-color="#FFA7BC" offset="0"/>
    <stop stop-color="#FC6986" offset="1"/>
  </linearGradient>
  <path class="cls-1" d="m40.1 6.6c-6.6 0-13 4.9-13 12.5 0 3.2 1.3 3.2 1.6 4.7 0.6 2.9 2 3.1 3.3 3.2 1.8 0.1 2.9 3.6 6.4 3.6 2.3 0 3.3-1.7 4.7-1.7 1.1 0 1.5 0.6 2.3 0.7 2.2 0.2 2.5-2.9 4-3.7 1.1-0.5 1.4-1 1.6-2.1 0.4-1.6 1.8-1.2 1.8-4.6 0-6.8-5.4-12.6-12.7-12.6zm-0.3 16c-2 0-4.1-1.5-4.1-3.8 0-1.8 1.8-4 4.1-4 2.1 0 4.4 1.6 4.4 3.9 0 2.2-1.9 3.9-4.4 3.9z"/>
  <linearGradient id="SVGID_3_" x1="11.45" x2="11.45" y1="1.091" y2="30.69" gradientUnits="userSpaceOnUse">
    <stop stop-color="#663B28" offset="0"/>
    <stop stop-color="#47271A" offset="1"/>
  </linearGradient>
  <path class="cls-3" d="m12.1 1.1h-9.9c-0.6 0-1 0.4-1 1.2v27.2c0 0.7 0.3 1.1 1 1.1h10c7.4 0.1 14.1-3.8 14.1-14.5 0-8.2-6-15-14.2-15zm-0.7 24.1h-3.8v-17.7h3.8c5.2 0 8.2 3.4 8.2 8.8s-2.6 8.9-8.2 8.9z"/>
  <linearGradient id="SVGID_4_" x1="63.62" x2="63.62" y1="9.11" y2="30.69" gradientUnits="userSpaceOnUse">
    <stop stop-color="#663B28" offset="0"/>
    <stop stop-color="#47271A" offset="1"/>
  </linearGradient>
  <path class="cls-4" d="m66.1 9.1c-1.8 0-3.8 0.8-5.4 2.1-0.2 0-0.4-0.1-0.4-0.3 0.1-0.7-0.6-1.3-1.4-1.3h-3.4c-0.7 0-1.2 0.5-1.2 1.3v18.5c0 0.7 0.4 1.2 1.1 1.2h3.7c0.7 0 1.1-0.5 1.1-1.2v-10c0-2.5 1.7-4.4 4-4.4s3.7 1.7 3.7 4.2v10.2c0 0.7 0.4 1.2 1.1 1.2h4c0.7 0 1-0.5 1-1.2v-11.1c0-5.4-2.9-9.2-7.9-9.2z"/>
  <linearGradient id="SVGID_5_" x1="87.21" x2="87.21" y1=".2488" y2="31.14" gradientUnits="userSpaceOnUse">
    <stop stop-color="#663B28" offset="0"/>
    <stop stop-color="#47271A" offset="1"/>
  </linearGradient>
  <path class="cls-5" d="m96.9 0.2h-3.8c-0.6 0-1.3 0.4-1.3 1.2v8.6c0 0.3-0.3 0.5-0.6 0.3-1.2-0.8-2.7-1.5-5.1-1.5-4.7 0-10.4 4-10.4 11.1 0 6.7 4.4 11.2 10.3 11.2 2.3 0 4-0.5 5.8-1.8 0.2-0.2 0.4-0.1 0.4 0.2 0 0.7 0.4 1.2 1.1 1.2h3.5c0.8 0 1.2-0.5 1.2-1.3v-28c0-0.7-0.4-1.2-1.1-1.2zm-10.2 25.2c-2.6 0-5-1.9-5-5.4 0-3.3 2.6-5.3 5-5.3s5.2 1.7 5.2 5.3c0 3.3-2.5 5.4-5.2 5.4z"/>
  <linearGradient id="SVGID_6_" x1="112.3" x2="112.3" y1="6.987" y2="32.26" gradientUnits="userSpaceOnUse">
    <stop stop-color="#E99449" offset="0"/>
    <stop stop-color="#B05A1B" offset="1"/>
  </linearGradient>
  <path class="cls-6" d="m112.3 7c-6.4 0-12 4.9-12.7 12.1-0.2 5.4 3.1 13.1 12.9 13.1 7.3 0 11.4-5.7 11.4-12 0-7.2-5.2-13.2-11.6-13.2zm0 15.8c-2 0.1-4.1-1.2-4.1-3.1 0-2.1 2-3.3 4-3.3 1.8 0.1 3.6 1.3 3.6 3.1 0 1.9-1.5 3.2-3.5 3.3z"/>
  <linearGradient id="SVGID_7_" x1="111.4" x2="111.4" y1="7.009" y2="30.57" gradientUnits="userSpaceOnUse">
    <stop stop-color="#97E3FF" offset="0"/>
    <stop stop-color="#54CCFF" offset=".4533"/>
    <stop stop-color="#35A9E1" offset="1"/>
  </linearGradient>
  <path class="cls-7" d="m112.5 7c-6.6-0.3-12.5 4.6-12.9 11.6-0.1 4 1.5 4.1 1.8 5.4 0.8 3.4 2.3 2.9 3.6 3.3 1.5 0.4 2 3.1 5.8 3.3 1.8 0 2.8-1.5 4.2-1.5 0.8 0 1.1 0.3 1.7 0.3 1.8-0.1 1.8-2.2 3.2-2.6 1.9-0.5 1.9-1.5 2.3-2.9 0.4-1.5 1.6-0.9 1.7-4.4 0.2-6.4-4.6-12.2-11.4-12.5zm-0.3 15.8c-2.4 0.2-4.1-1.3-4.1-3.8 0-2.1 2-3.9 4.2-3.8s3.8 1.6 3.8 4c0 1.8-1.4 3.4-3.9 3.6z"/>
  <linearGradient id="SVGID_8_" x1="29.67" x2="39.21" y1="16.01" y2="11.06" gradientUnits="userSpaceOnUse">
    <stop stop-color="#fff" stop-opacity=".5" offset="0"/>
    <stop stop-color="#fff" stop-opacity="0" offset="1"/>
  </linearGradient>
  <path class="cls-8" d="m38.9 8.4c-5.6 0-9.5 4.4-9.5 8.9 1.4 0.3 1.2-5.1 9.5-7.7 0.9-0.3 0.9-1.2 0-1.2z"/>
  <linearGradient id="SVGID_9_" x1="102.2" x2="111.5" y1="13.97" y2="11.11" gradientUnits="userSpaceOnUse">
    <stop stop-color="#fff" stop-opacity=".8" offset="0"/>
    <stop stop-color="#fff" stop-opacity="0" offset="1"/>
  </linearGradient>
  <path class="cls-9" d="m110.6 8.9c-4.8 0.2-9.1 4.5-8.8 8.9 1.4 0.3 1.2-6.1 8.8-7.8 0.8-0.2 0.8-1.2 0-1.1z"/>
  <path class="cls-2" d="m12.1 1.1c-2.9 0-7.4 0.1-9.8 0.1-0.8 0-0.7 0.4-0.7 0.9v27.4c0 0.5 0.2 0.7 0.7 0.7h9.8c6.8 0 14-2.7 14.2-14.1 0 10.3-5.1 14.6-13.9 14.6h-10.2c-0.7 0-1.2-0.3-1.2-1.2v-27.2c0-0.6 0.3-1.3 1.1-1.3l10 0.1z"/>
  <path class="cls-2" d="m7.2 7h3.9c4.4 0 8.7 3.2 9.1 8.9-0.6-4.7-3.6-8.4-8.8-8.4h-3.8l-0.4-0.5z"/>
  <path class="cls-2" d="m54.7 10.7v18.7c0 0.3 0.2 0.6 0.6 0.6h3.8c0.6 0 0.9-0.2 0.9-0.7 0 1.1-0.3 1.4-0.9 1.4h-3.8c-0.6 0-1.1-0.4-1.1-1.3v-18.7c0-0.7 0.4-1.2 1.3-1.2l3.6 0.1h-3.6c-0.6 0-0.8 0.5-0.8 1.1z"/>
  <path class="cls-2" d="m60.2 17.6c0.5-1.8 1.9-3.3 4-3.3 3.1 0 4.2 2.5 4.2 5.5-0.3-2.8-1.8-4.8-4.2-4.8-1.7 0.1-3.4 1.1-4 2.6z"/>
  <path class="cls-2" d="m68.5 29.4c0 0.6 0.2 0.8 0.7 0.8h3.7c0.6 0 0.8-0.3 0.8-0.8v-12.3c0.2 0.9 0.2 2 0.2 3.1v9.3c0 0.7-0.2 1.2-1 1.2h-3.9c-0.6 0-1.1-0.4-1.1-1.1l0.6-0.2z"/>
  <path class="cls-2" d="m76.2 20.5c0-6.3 4.7-11.3 9.9-11.3 2 0 3.6 0.6 5.2 1.6 0.7 0.5 1.3 0.5 1.3-0.5v-8.9c0-0.6 0.3-1.2 1.2-1.2l3.1 0.1h-3.6c-0.6 0-0.8 0.4-0.8 1v8.7c0 0.6-0.3 0.8-0.9 0.4-1.3-0.8-2.7-1.6-5.5-1.6-4.5 0-10.4 3.7-10.4 11.1 0 4.9 2.8 10.6 10.3 10.7 1 0 3.4 0.1 5.9-1.4-2.1 1.5-3.5 1.9-5.9 1.9-6 0-9.8-4.6-9.8-10.6z"/>
  <path class="cls-2" d="m81.6 20.5c0-3.3 2.2-6.6 5.4-6.7 3.3-0.1 5.6 2.7 5.6 5.9-0.2-2.8-2.7-5-5.5-5-3 0-5.4 2.4-5.5 5.8z"/>
  <path class="cls-2" d="m92.4 28.7 0.2 0.8c0 0.7 0.3 1.2 0.9 1.2h3.4c0.6 0 0.9-0.5 0.9-1.2v-27.9l0.2-0.1v28c0 0.7-0.3 1.3-1.1 1.3h-3.6c-0.7 0-1.4-0.4-1.3-1.5l0.4-0.6z"/>
  <path class="cls-2" d="m102.4 26.1c0.9 1.2 2 0.8 2.9 1.1 1.4 0.4 1.9 2.9 5.3 3.2 1.9 0.1 2.9-1.4 4.4-1.4 0.8 0 0.9 0.4 1.7 0.3-2.3 0.8-2.5-0.4-4.2 0.6-0.7 0.5-1.3 0.7-1.9 0.7-3.6 0-4-3-5.7-3.3-1.1-0.1-1.7 0-2.5-1.2z"/>
  <path class="cls-2" d="m29.9 26c0.8 1.1 1.8 0.8 2.7 1 1.5 0.4 2.4 3.4 5.8 3.5 1.8 0 3-1.8 4.7-1.8 0.8 0 1.1 0.4 2.2 0.7-1.9 0.5-2.2-0.7-3.9 0.4-0.8 0.6-1.6 0.9-3 0.9-3.3-0.1-4.3-3.3-6-3.5-1-0.2-1.7 0-2.5-1.2z"/>
</svg>